<svg version="1.1" viewBox="0.0 0.0 284.5249343832021 213.39370078740157" fill="none" stroke="none" stroke-linecap="square" stroke-miterlimit="10" xmlns:xlink="http://www.w3.org/1999/xlink" xmlns="http://www.w3.org/2000/svg"><clipPath id="p.0"><path d="m0 0l284.52493 0l0 213.3937l-284.52493 0l0 -213.3937z" clip-rule="nonzero"/></clipPath><g clip-path="url(#p.0)"><path fill="#000000" fill-opacity="0.0" d="m0 0l284.52493 0l0 213.3937l-284.52493 0z" fill-rule="evenodd"/><path fill="#666666" d="m53.114174 177.71129l0 0c0 -10.715195 8.6863785 -19.40158 19.401573 -19.40158l0 0c5.1456223 0 10.0804825 2.044098 13.7189865 5.6825867c3.638504 3.638504 5.6825867 8.5733795 5.6825867 13.718994l0 0c0 10.715195 -8.6863785 19.401566 -19.401573 19.401566l0 0c-10.715195 0 -19.401573 -8.686371 -19.401573 -19.401566z" fill-rule="evenodd"/><path fill="#666666" d="m191.9462 35.682415l0 0c0 -10.715195 8.686371 -19.401575 19.401566 -19.401575l0 0c5.14563 0 10.08049 2.0440884 13.718994 5.6825905c3.638504 3.6385002 5.6825867 8.573366 5.6825867 13.718985l0 0c0 10.715195 -8.686386 19.401573 -19.40158 19.401573l0 0c-10.715195 0 -19.401566 -8.6863785 -19.401566 -19.401573z" fill-rule="evenodd"/><path fill="#000000" fill-opacity="0.0" d="m191.9462 35.682415l-81.41733 0" fill-rule="evenodd"/><path stroke="#666666" stroke-width="2.0" stroke-linejoin="round" stroke-linecap="butt" d="m191.9462 35.682415l-69.41733 0" fill-rule="evenodd"/><path fill="#666666" stroke="#666666" stroke-width="2.0" stroke-linecap="butt" d="m122.52887 32.37895l-9.076195 3.3034668l9.076195 3.303463z" fill-rule="evenodd"/><path fill="#000000" fill-opacity="0.0" d="m86.23473 163.9923l28.09449 -121.102356" fill-rule="evenodd"/><path stroke="#666666" stroke-width="2.0" stroke-linejoin="round" stroke-linecap="butt" stroke-dasharray="8.0,6.0" d="m86.23473 163.9923l25.38263 -109.412796" fill-rule="evenodd"/><path fill="#666666" stroke="#666666" stroke-width="2.0" stroke-linecap="butt" d="m114.83537 55.326042l-1.166893 -9.587936l-5.2691193 8.094849z" fill-rule="evenodd"/><path fill="#4a86e8" d="m38.064583 149.52834l37.732285 -9.039383l1.5747986 6.67717l-37.73228 9.039368z" fill-rule="evenodd"/><path fill="#4a86e8" d="m207.09006 63.11123l38.456696 -5.1338577l0.91337585 6.771652l-38.45668 5.1338577z" fill-rule="evenodd"/></g></svg>